<svg height="2670" width="720" xmlns="http://www.w3.org/2000/svg">
<rect height="2670" fill="#555" width="720"></rect>
<text fill="#7f7" font-family="Courier New" font-size="12" xml:space="preserve">
<tspan x="10" y="26">39 megabytes installed</tspan>
<tspan x="10" y="42"></tspan>
<tspan x="10" y="58">node_modules</tspan>
<tspan x="10" y="74">└─┬ fabric@2.0.0-beta.1 </tspan>
<tspan x="10" y="90">  ├─┬ canvas-prebuilt@1.6.5-prerelease.1 </tspan>
<tspan x="10" y="106">  │ ├─┬ node-pre-gyp@0.6.34 </tspan>
<tspan x="10" y="122">  │ │ ├─┬ mkdirp@0.5.1 </tspan>
<tspan x="10" y="138">  │ │ │ └── minimist@0.0.8 </tspan>
<tspan x="10" y="154">  │ │ ├─┬ nopt@4.0.1 </tspan>
<tspan x="10" y="170">  │ │ │ ├── abbrev@1.1.0 </tspan>
<tspan x="10" y="186">  │ │ │ └─┬ osenv@0.1.4 </tspan>
<tspan x="10" y="202">  │ │ │   ├── os-homedir@1.0.2 </tspan>
<tspan x="10" y="218">  │ │ │   └── os-tmpdir@1.0.2 </tspan>
<tspan x="10" y="234">  │ │ ├─┬ npmlog@4.0.2 </tspan>
<tspan x="10" y="250">  │ │ │ ├─┬ are-we-there-yet@1.1.4 </tspan>
<tspan x="10" y="266">  │ │ │ │ └── delegates@1.0.0 </tspan>
<tspan x="10" y="282">  │ │ │ ├── console-control-strings@1.1.0 </tspan>
<tspan x="10" y="298">  │ │ │ ├─┬ gauge@2.7.4 </tspan>
<tspan x="10" y="314">  │ │ │ │ ├── aproba@1.1.1 </tspan>
<tspan x="10" y="330">  │ │ │ │ ├── has-unicode@2.0.1 </tspan>
<tspan x="10" y="346">  │ │ │ │ ├── object-assign@4.1.1 </tspan>
<tspan x="10" y="362">  │ │ │ │ ├── signal-exit@3.0.2 </tspan>
<tspan x="10" y="378">  │ │ │ │ ├─┬ string-width@1.0.2 </tspan>
<tspan x="10" y="394">  │ │ │ │ │ ├── code-point-at@1.1.0 </tspan>
<tspan x="10" y="410">  │ │ │ │ │ └─┬ is-fullwidth-code-point@1.0.0 </tspan>
<tspan x="10" y="426">  │ │ │ │ │   └── number-is-nan@1.0.1 </tspan>
<tspan x="10" y="442">  │ │ │ │ ├─┬ strip-ansi@3.0.1 </tspan>
<tspan x="10" y="458">  │ │ │ │ │ └── ansi-regex@2.1.1 </tspan>
<tspan x="10" y="474">  │ │ │ │ └── wide-align@1.1.0 </tspan>
<tspan x="10" y="490">  │ │ │ └── set-blocking@2.0.0 </tspan>
<tspan x="10" y="506">  │ │ ├─┬ rc@1.2.1 </tspan>
<tspan x="10" y="522">  │ │ │ ├── deep-extend@0.4.1 </tspan>
<tspan x="10" y="538">  │ │ │ ├── ini@1.3.4 </tspan>
<tspan x="10" y="554">  │ │ │ ├── minimist@1.2.0 </tspan>
<tspan x="10" y="570">  │ │ │ └── strip-json-comments@2.0.1 </tspan>
<tspan x="10" y="586">  │ │ ├─┬ rimraf@2.6.1 </tspan>
<tspan x="10" y="602">  │ │ │ └─┬ glob@7.1.1 </tspan>
<tspan x="10" y="618">  │ │ │   ├── fs.realpath@1.0.0 </tspan>
<tspan x="10" y="634">  │ │ │   ├── inflight@1.0.6 </tspan>
<tspan x="10" y="650">  │ │ │   ├─┬ minimatch@3.0.3 </tspan>
<tspan x="10" y="666">  │ │ │   │ └─┬ brace-expansion@1.1.7 </tspan>
<tspan x="10" y="682">  │ │ │   │   ├── balanced-match@0.4.2 </tspan>
<tspan x="10" y="698">  │ │ │   │   └── concat-map@0.0.1 </tspan>
<tspan x="10" y="714">  │ │ │   └── path-is-absolute@1.0.1 </tspan>
<tspan x="10" y="730">  │ │ ├── semver@5.3.0 </tspan>
<tspan x="10" y="746">  │ │ ├─┬ tar@2.2.1 </tspan>
<tspan x="10" y="762">  │ │ │ ├── block-stream@0.0.9 </tspan>
<tspan x="10" y="778">  │ │ │ ├─┬ fstream@1.0.11 </tspan>
<tspan x="10" y="794">  │ │ │ │ └── graceful-fs@4.1.11 </tspan>
<tspan x="10" y="810">  │ │ │ └── inherits@2.0.3 </tspan>
<tspan x="10" y="826">  │ │ └─┬ tar-pack@3.4.0 </tspan>
<tspan x="10" y="842">  │ │   ├─┬ debug@2.6.4 </tspan>
<tspan x="10" y="858">  │ │   │ └── ms@0.7.3 </tspan>
<tspan x="10" y="874">  │ │   ├── fstream-ignore@1.0.5 </tspan>
<tspan x="10" y="890">  │ │   ├─┬ once@1.4.0 </tspan>
<tspan x="10" y="906">  │ │   │ └── wrappy@1.0.2 </tspan>
<tspan x="10" y="922">  │ │   ├─┬ readable-stream@2.2.9 </tspan>
<tspan x="10" y="938">  │ │   │ ├── buffer-shims@1.0.0 </tspan>
<tspan x="10" y="954">  │ │   │ ├── core-util-is@1.0.2 </tspan>
<tspan x="10" y="970">  │ │   │ ├── isarray@1.0.0 </tspan>
<tspan x="10" y="986">  │ │   │ ├── process-nextick-args@1.0.7 </tspan>
<tspan x="10" y="1002">  │ │   │ ├── string_decoder@1.0.0 </tspan>
<tspan x="10" y="1018">  │ │   │ └── util-deprecate@1.0.2 </tspan>
<tspan x="10" y="1034">  │ │   └── uid-number@0.0.6 </tspan>
<tspan x="10" y="1050">  │ ├─┬ parse-css-font@2.0.2 </tspan>
<tspan x="10" y="1066">  │ │ ├── css-font-size-keywords@1.0.0 </tspan>
<tspan x="10" y="1082">  │ │ ├── css-font-stretch-keywords@1.0.1 </tspan>
<tspan x="10" y="1098">  │ │ ├── css-font-style-keywords@1.0.1 </tspan>
<tspan x="10" y="1114">  │ │ ├── css-font-weight-keywords@1.0.0 </tspan>
<tspan x="10" y="1130">  │ │ ├── css-global-keywords@1.0.1 </tspan>
<tspan x="10" y="1146">  │ │ ├── css-list-helpers@1.0.1 </tspan>
<tspan x="10" y="1162">  │ │ ├── css-system-font-keywords@1.0.0 </tspan>
<tspan x="10" y="1178">  │ │ ├── tcomb@2.7.0 </tspan>
<tspan x="10" y="1194">  │ │ └── unquote@1.1.0 </tspan>
<tspan x="10" y="1210">  │ └─┬ units-css@0.4.0 </tspan>
<tspan x="10" y="1226">  │   ├── isnumeric@0.2.0 </tspan>
<tspan x="10" y="1242">  │   └── viewport-dimensions@0.2.0 </tspan>
<tspan x="10" y="1258">  ├─┬ jsdom@9.12.0 </tspan>
<tspan x="10" y="1274">  │ ├── abab@1.0.3 </tspan>
<tspan x="10" y="1290">  │ ├── acorn@4.0.11 </tspan>
<tspan x="10" y="1306">  │ ├── acorn-globals@3.1.0 </tspan>
<tspan x="10" y="1322">  │ ├── array-equal@1.0.0 </tspan>
<tspan x="10" y="1338">  │ ├── content-type-parser@1.0.1 </tspan>
<tspan x="10" y="1354">  │ ├── cssom@0.3.2 </tspan>
<tspan x="10" y="1370">  │ ├── cssstyle@0.2.37 </tspan>
<tspan x="10" y="1386">  │ ├─┬ escodegen@1.8.1 </tspan>
<tspan x="10" y="1402">  │ │ ├── esprima@2.7.3 </tspan>
<tspan x="10" y="1418">  │ │ ├── estraverse@1.9.3 </tspan>
<tspan x="10" y="1434">  │ │ ├── esutils@2.0.2 </tspan>
<tspan x="10" y="1450">  │ │ ├─┬ optionator@0.8.2 </tspan>
<tspan x="10" y="1466">  │ │ │ ├── deep-is@0.1.3 </tspan>
<tspan x="10" y="1482">  │ │ │ ├── fast-levenshtein@2.0.6 </tspan>
<tspan x="10" y="1498">  │ │ │ ├── levn@0.3.0 </tspan>
<tspan x="10" y="1514">  │ │ │ ├── prelude-ls@1.1.2 </tspan>
<tspan x="10" y="1530">  │ │ │ ├── type-check@0.3.2 </tspan>
<tspan x="10" y="1546">  │ │ │ └── wordwrap@1.0.0 </tspan>
<tspan x="10" y="1562">  │ │ └─┬ source-map@0.2.0 </tspan>
<tspan x="10" y="1578">  │ │   └── amdefine@1.0.1 </tspan>
<tspan x="10" y="1594">  │ ├── html-encoding-sniffer@1.0.1 </tspan>
<tspan x="10" y="1610">  │ ├── nwmatcher@1.3.9 </tspan>
<tspan x="10" y="1626">  │ ├── parse5@1.5.1 </tspan>
<tspan x="10" y="1642">  │ ├─┬ request@2.81.0 </tspan>
<tspan x="10" y="1658">  │ │ ├── aws-sign2@0.6.0 </tspan>
<tspan x="10" y="1674">  │ │ ├── aws4@1.6.0 </tspan>
<tspan x="10" y="1690">  │ │ ├── caseless@0.12.0 </tspan>
<tspan x="10" y="1706">  │ │ ├─┬ combined-stream@1.0.5 </tspan>
<tspan x="10" y="1722">  │ │ │ └── delayed-stream@1.0.0 </tspan>
<tspan x="10" y="1738">  │ │ ├── extend@3.0.0 </tspan>
<tspan x="10" y="1754">  │ │ ├── forever-agent@0.6.1 </tspan>
<tspan x="10" y="1770">  │ │ ├─┬ form-data@2.1.4 </tspan>
<tspan x="10" y="1786">  │ │ │ └── asynckit@0.4.0 </tspan>
<tspan x="10" y="1802">  │ │ ├─┬ har-validator@4.2.1 </tspan>
<tspan x="10" y="1818">  │ │ │ ├─┬ ajv@4.11.7 </tspan>
<tspan x="10" y="1834">  │ │ │ │ ├── co@4.6.0 </tspan>
<tspan x="10" y="1850">  │ │ │ │ └─┬ json-stable-stringify@1.0.1 </tspan>
<tspan x="10" y="1866">  │ │ │ │   └── jsonify@0.0.0 </tspan>
<tspan x="10" y="1882">  │ │ │ └── har-schema@1.0.5 </tspan>
<tspan x="10" y="1898">  │ │ ├─┬ hawk@3.1.3 </tspan>
<tspan x="10" y="1914">  │ │ │ ├── boom@2.10.1 </tspan>
<tspan x="10" y="1930">  │ │ │ ├── cryptiles@2.0.5 </tspan>
<tspan x="10" y="1946">  │ │ │ ├── hoek@2.16.3 </tspan>
<tspan x="10" y="1962">  │ │ │ └── sntp@1.0.9 </tspan>
<tspan x="10" y="1978">  │ │ ├─┬ http-signature@1.1.1 </tspan>
<tspan x="10" y="1994">  │ │ │ ├── assert-plus@0.2.0 </tspan>
<tspan x="10" y="2010">  │ │ │ ├─┬ jsprim@1.4.0 </tspan>
<tspan x="10" y="2026">  │ │ │ │ ├── assert-plus@1.0.0 </tspan>
<tspan x="10" y="2042">  │ │ │ │ ├── extsprintf@1.0.2 </tspan>
<tspan x="10" y="2058">  │ │ │ │ ├── json-schema@0.2.3 </tspan>
<tspan x="10" y="2074">  │ │ │ │ └── verror@1.3.6 </tspan>
<tspan x="10" y="2090">  │ │ │ └─┬ sshpk@1.13.0 </tspan>
<tspan x="10" y="2106">  │ │ │   ├── asn1@0.2.3 </tspan>
<tspan x="10" y="2122">  │ │ │   ├── assert-plus@1.0.0 </tspan>
<tspan x="10" y="2138">  │ │ │   ├── bcrypt-pbkdf@1.0.1 </tspan>
<tspan x="10" y="2154">  │ │ │   ├─┬ dashdash@1.14.1 </tspan>
<tspan x="10" y="2170">  │ │ │   │ └── assert-plus@1.0.0 </tspan>
<tspan x="10" y="2186">  │ │ │   ├── ecc-jsbn@0.1.1 </tspan>
<tspan x="10" y="2202">  │ │ │   ├─┬ getpass@0.1.6 </tspan>
<tspan x="10" y="2218">  │ │ │   │ └── assert-plus@1.0.0 </tspan>
<tspan x="10" y="2234">  │ │ │   ├── jodid25519@1.0.2 </tspan>
<tspan x="10" y="2250">  │ │ │   ├── jsbn@0.1.1 </tspan>
<tspan x="10" y="2266">  │ │ │   └── tweetnacl@0.14.5 </tspan>
<tspan x="10" y="2282">  │ │ ├── is-typedarray@1.0.0 </tspan>
<tspan x="10" y="2298">  │ │ ├── isstream@0.1.2 </tspan>
<tspan x="10" y="2314">  │ │ ├── json-stringify-safe@5.0.1 </tspan>
<tspan x="10" y="2330">  │ │ ├─┬ mime-types@2.1.15 </tspan>
<tspan x="10" y="2346">  │ │ │ └── mime-db@1.27.0 </tspan>
<tspan x="10" y="2362">  │ │ ├── oauth-sign@0.8.2 </tspan>
<tspan x="10" y="2378">  │ │ ├── performance-now@0.2.0 </tspan>
<tspan x="10" y="2394">  │ │ ├── qs@6.4.0 </tspan>
<tspan x="10" y="2410">  │ │ ├── safe-buffer@5.0.1 </tspan>
<tspan x="10" y="2426">  │ │ ├── stringstream@0.0.5 </tspan>
<tspan x="10" y="2442">  │ │ ├── tunnel-agent@0.6.0 </tspan>
<tspan x="10" y="2458">  │ │ └── uuid@3.0.1 </tspan>
<tspan x="10" y="2474">  │ ├── sax@1.2.2 </tspan>
<tspan x="10" y="2490">  │ ├── symbol-tree@3.2.2 </tspan>
<tspan x="10" y="2506">  │ ├─┬ tough-cookie@2.3.2 </tspan>
<tspan x="10" y="2522">  │ │ └── punycode@1.4.1 </tspan>
<tspan x="10" y="2538">  │ ├── webidl-conversions@4.0.1 </tspan>
<tspan x="10" y="2554">  │ ├─┬ whatwg-encoding@1.0.1 </tspan>
<tspan x="10" y="2570">  │ │ └── iconv-lite@0.4.13 </tspan>
<tspan x="10" y="2586">  │ ├─┬ whatwg-url@4.7.0 </tspan>
<tspan x="10" y="2602">  │ │ ├── tr46@0.0.3 </tspan>
<tspan x="10" y="2618">  │ │ └── webidl-conversions@3.0.1 </tspan>
<tspan x="10" y="2634">  │ └── xml-name-validator@2.0.1 </tspan>
<tspan x="10" y="2650">  └── xmldom@0.1.27</tspan>
</text>
</svg>
